%
M48
M72
T01C0.0236
T02C0.0320
T03C0.0400
T04C0.0433
T05C0.0500
T06C0.0984
T07C0.1579
T08C0.1614
%
T01
X3330Y36597
X3330Y34826
X3330Y32857
X3330Y30889
X3330Y28920
X3330Y26952
X3330Y24983
X3330Y23015
X3330Y21046
X3330Y19078
X3330Y17109
X3330Y15141
X4904Y15141
X4904Y17109
X4904Y19078
X4904Y21046
X4904Y23015
X4904Y24983
X4904Y26952
X4904Y28920
X4904Y30889
X4904Y32857
X4904Y34826
X4904Y36597
X9629Y36597
X9629Y38566
X9629Y40534
X8054Y40534
X8054Y38566
X11400Y38566
X11400Y40534
X13172Y40534
X13172Y38566
X13172Y36597
X14747Y36597
X14747Y38566
X14747Y40534
X16519Y40534
X16519Y38566
X19078Y36597
X20652Y36597
X14747Y24983
X14747Y23015
X14747Y21046
X14747Y19078
X14747Y19078
X14747Y17109
X14747Y15141
X14747Y13172
X14747Y11204
X14747Y9235
X16715Y9235
X16715Y11204
X16715Y13172
X16715Y15141
X16715Y17109
X16715Y19078
X16715Y21046
X18684Y21046
X18684Y19078
X18684Y17109
X18684Y15141
X20652Y15141
X20652Y17109
X20652Y19078
X20652Y21046
X20652Y23015
X12778Y23015
X12778Y24983
X10810Y23015
X10810Y21046
X12778Y21046
X8841Y21046
X6873Y21046
X11400Y36597
T02
X10290Y33184
X10290Y35184
X10290Y30054
X10290Y27054
X10149Y25999
X10149Y24999
X12725Y14763
X12725Y13763
X12725Y12763
X12385Y10469
X13385Y10469
X11385Y10469
X9381Y10290
X8881Y9540
X8381Y10290
X19900Y35184
X19900Y33184
X19900Y30054
X19900Y27054
X19830Y25999
X19830Y24999
T03
X6660Y10219
T04
X17196Y7149
X17196Y6149
X17196Y5149
X17196Y4149
X18196Y4149
X18196Y5149
X18196Y6149
X18196Y7149
X15696Y7149
X15696Y6149
X15696Y5149
X15696Y4149
X14696Y4149
X14696Y5149
X14696Y6149
X14696Y7149
X13444Y7149
X13444Y6149
X13444Y5149
X13444Y4149
X12444Y4149
X12444Y5149
X12444Y6149
X12444Y7149
X11444Y7149
X11444Y6149
X11444Y5149
X11444Y4149
X10192Y4149
X10192Y5149
X10192Y6149
X10192Y7149
X9192Y7149
X9192Y6149
X9192Y5149
X9192Y4149
X7692Y4149
X7692Y5149
X7692Y6149
X7692Y7149
X6692Y7149
X6692Y6149
X6692Y5149
X6692Y4149
T05
X7834Y36621
X7834Y36571
X7834Y36521
X7834Y36471
X7834Y36421
X7834Y36371
X7834Y36321
X7834Y36271
X7834Y36221
X7834Y36171
X7834Y36121
X7834Y36071
X7834Y36021
X7834Y35971
X7834Y35921
X7834Y35871
X7834Y35871
X7834Y35841
X7834Y35821
X7834Y35771
X7834Y35771
X7834Y35721
X7834Y35721
X7834Y35721
X7834Y35671
X7834Y35671
X7834Y35621
X7834Y35562
X7834Y35512
X7834Y35462
X7834Y35412
X7834Y35362
X7834Y35312
X7834Y35262
X7834Y35212
X7834Y35162
X7834Y35112
X7834Y35062
X7834Y33511
X7834Y33461
X7834Y33411
X7834Y33361
X7834Y33311
X7834Y33261
X7834Y33211
X7834Y33161
X7834Y33111
X7834Y33061
X7834Y33011
X7834Y32952
X7834Y32902
X7834Y32852
X7834Y32802
X7834Y32752
X7834Y32731
X7834Y32702
X7834Y32652
X7834Y32602
X7834Y32552
X7834Y32502
X7834Y32452
X7834Y32402
X7834Y32352
X7834Y32302
X7834Y32252
X7834Y32202
X7834Y32152
X7834Y32102
X7834Y32052
X7834Y32002
X7834Y31952
X17444Y31952
X17444Y32002
X17444Y32052
X17444Y32102
X17444Y32152
X17444Y32202
X17444Y32252
X17444Y32302
X17444Y32352
X17444Y32402
X17444Y32452
X17444Y32502
X17444Y32552
X17444Y32602
X17444Y32652
X17444Y32702
X17444Y32731
X17444Y32752
X17444Y32802
X17444Y32852
X17444Y32902
X17444Y32952
X17444Y33011
X17444Y33061
X17444Y33111
X17444Y33161
X17444Y33211
X17444Y33261
X17444Y33311
X17444Y33361
X17444Y33411
X17444Y33461
X17444Y33511
X17444Y35062
X17444Y35112
X17444Y35162
X17444Y35212
X17444Y35262
X17444Y35312
X17444Y35362
X17444Y35412
X17444Y35462
X17444Y35512
X17444Y35562
X17444Y35621
X17444Y35671
X17444Y35671
X17444Y35721
X17444Y35721
X17444Y35721
X17444Y35771
X17444Y35771
X17444Y35821
X17444Y35841
X17444Y35871
X17444Y35871
X17444Y35921
X17444Y35971
X17444Y36021
X17444Y36071
X17444Y36121
X17444Y36171
X17444Y36221
X17444Y36271
X17444Y36321
X17444Y36371
X17444Y36421
X17444Y36471
X17444Y36521
X17444Y36571
X17444Y36621
T06
X7546Y28617
X7546Y26649
X7546Y25074
X7546Y23105
X17227Y23105
X17227Y25074
X17227Y26649
X17227Y28617
T07
X20684Y5149
X4204Y5149
T08
X4511Y39550
X20259Y39550
X20259Y11204
X4511Y11204
M30
